<svg viewBox="0 0 120 22" fill="none" xmlns="http://www.w3.org/2000/svg">
  <g clip-path="url(#a)" fill="#000">
    <path d="M119.065 16.23c-1.266 0-2.034-.489-2.034-2.29V9.59h-1.115V8.352h1.115V5.849h1.477v2.504h1.477v1.236h-1.477v4.397c0 .824.226 1.007.859 1.007.256 0 .377-.015.633-.06v1.205a4.198 4.198 0 0 1-.935.092ZM113.533 11.146c0-1.038-.452-1.74-1.567-1.74-1.266 0-2.08.779-2.08 1.954v4.778h-1.477V8.353h1.477v.977h.03c.407-.596 1.206-1.206 2.532-1.206 1.417 0 2.562.824 2.562 2.61v5.404h-1.477v-4.992ZM103.514 16.367c-2.441 0-3.798-1.755-3.798-4.137 0-2.442 1.447-4.122 3.798-4.122 2.336 0 3.647 1.558 3.647 3.97 0 .213 0 .442-.015.564h-5.908c.031 1.298.784 2.504 2.306 2.504 1.357 0 1.884-.886 2.02-1.405h1.507c-.407 1.497-1.537 2.626-3.557 2.626Zm-2.276-4.9h4.386c0-1.221-.844-2.137-2.155-2.137-1.236 0-2.14.854-2.231 2.137ZM91.437 16.352c-1.96 0-3.451-1.542-3.451-4.107 0-2.564 1.492-4.122 3.451-4.122 1.206 0 1.944.565 2.366 1.176h.03V5.223h1.478v10.915h-1.478v-.916h-.03c-.422.55-1.16 1.13-2.366 1.13Zm-1.914-4.107c0 1.527.708 2.87 2.155 2.87 1.326 0 2.14-1.114 2.14-2.87 0-1.77-.814-2.87-2.14-2.87-1.447 0-2.155 1.344-2.155 2.87ZM82.842 16.352c-1.96 0-3.452-1.542-3.452-4.106 0-2.565 1.492-4.122 3.452-4.122 1.205 0 1.944.565 2.366 1.175h.03v-.946h1.477v7.785h-1.477v-.916h-.03c-.422.55-1.16 1.13-2.366 1.13Zm-1.915-4.106c0 1.526.709 2.87 2.156 2.87 1.326 0 2.14-1.115 2.14-2.87 0-1.771-.814-2.87-2.14-2.87-1.447 0-2.156 1.343-2.156 2.87ZM76.314 12.108v4.03h-1.477V8.353h1.477v1.48h.03c.407-.977 1.025-1.664 2.065-1.664.27 0 .482.016.708.046V9.65a2.74 2.74 0 0 0-.498-.046c-1.34 0-2.305 1.023-2.305 2.504ZM68.335 16.352c-3.104 0-4.852-2.381-4.852-5.679 0-3.282 1.974-5.663 5.048-5.663 2.789 0 4.266 1.51 4.612 3.587H71.41c-.286-1.374-1.296-2.137-2.894-2.137-2.381 0-3.3 2.168-3.3 4.213 0 2.061.693 4.229 3.21 4.229 1.778 0 3.195-1.252 3.21-3.069h-3.18V10.43h4.868v5.71h-1.552v-1.512h-.03c-.754 1.114-1.764 1.725-3.407 1.725ZM60.798 11.146c0-1.038-.453-1.74-1.568-1.74-1.266 0-2.08.779-2.08 1.954v4.778h-1.477V8.353h1.477v.977h.03c.407-.596 1.206-1.206 2.532-1.206 1.417 0 2.563.824 2.563 2.61v5.404h-1.477v-4.992ZM50.779 16.367c-2.442 0-3.799-1.755-3.799-4.137 0-2.442 1.447-4.122 3.799-4.122 2.336 0 3.647 1.558 3.647 3.97 0 .213 0 .442-.015.564h-5.908c.03 1.298.783 2.504 2.306 2.504 1.356 0 1.884-.886 2.02-1.405h1.506c-.407 1.497-1.537 2.626-3.556 2.626Zm-2.276-4.9h4.386c0-1.221-.845-2.137-2.156-2.137-1.236 0-2.14.854-2.23 2.137ZM42.65 16.352c-1.206 0-1.944-.55-2.366-1.175h-.03v3.663h-1.477V8.353h1.477v.916h.03c.422-.55 1.16-1.145 2.366-1.145 1.96 0 3.451 1.557 3.451 4.122 0 2.564-1.492 4.106-3.45 4.106Zm-2.381-4.106c0 1.755.814 2.87 2.14 2.87 1.447 0 2.14-1.344 2.14-2.87 0-1.527-.693-2.87-2.14-2.87-1.326 0-2.14 1.099-2.14 2.87ZM32.212 16.352c-3.225 0-5.29-2.397-5.29-5.679 0-3.282 2.065-5.663 5.29-5.663s5.29 2.381 5.29 5.663c0 3.282-2.065 5.68-5.29 5.68Zm-3.557-5.679c0 2.244 1.01 4.229 3.557 4.229 2.547 0 3.557-1.985 3.557-4.229 0-2.244-1.01-4.213-3.557-4.213-2.547 0-3.557 1.97-3.557 4.213ZM96.972 16.138V8.353h1.478v7.785h-1.478ZM97.719 7.142c.523 0 .947-.43.947-.96s-.424-.96-.947-.96a.953.953 0 0 0-.947.96c0 .53.424.96.947.96Z"/>
    <path fill-rule="evenodd" clip-rule="evenodd" d="M9.055.836a2.438 2.438 0 0 1 3.52 0l2.438 2.53c.449.465.7 1.09.7 1.74v.972h.96c.642 0 1.258.255 1.718.71l2.497 2.469a2.514 2.514 0 0 1 0 3.566l-2.497 2.47a2.444 2.444 0 0 1-1.719.708h-.959v.972c0 .65-.251 1.275-.7 1.74l-2.438 2.53a2.438 2.438 0 0 1-3.52 0l-2.439-2.53a2.508 2.508 0 0 1-.7-1.74V16h-.959c-.642 0-1.259-.254-1.718-.709L.74 12.822a2.514 2.514 0 0 1 0-3.565l2.498-2.47a2.444 2.444 0 0 1 1.718-.709h.96v-.971c0-.651.25-1.276.7-1.741L9.054.836ZM7.237 16.973V16h1.148c.642 0 1.26-.254 1.719-.709l.71-.703.712.703c.46.455 1.076.709 1.718.709h1.149v.972c0 .301-.116.59-.324.806l-2.439 2.53a1.13 1.13 0 0 1-1.63 0l-2.44-2.53a1.162 1.162 0 0 1-.323-.806Zm1.944-2.637.689-.681-.72-.712a2.593 2.593 0 0 1-.095-.094l-.01-.011-.016-.015a2.496 2.496 0 0 1-.097-.101l-.699-.726-.672.698a1.162 1.162 0 0 0-.324.807v1.163h1.148c.298 0 .584-.118.796-.329Zm2.579-5.911.716.708.099.097.015.016.01.01c.033.032.064.065.094.097l.702.73.673-.698c.208-.215.324-.505.324-.806V7.415h-1.149c-.297 0-.583.118-.796.329l-.689.68Zm.84 4.397-.012.014-.013.013a2.583 2.583 0 0 1-.098.095l-.718.71.689.681c.213.211.499.329.796.329h1.149v-1.163c0-.302-.116-.591-.324-.807l-.673-.698-.7.728-.095.098Zm-2.496-6.035.71.703.712-.703a2.444 2.444 0 0 1 1.718-.709h1.149v-.971c0-.302-.116-.591-.324-.807L11.63 1.77a1.13 1.13 0 0 0-1.63 0L7.56 4.3a1.163 1.163 0 0 0-.323.807v.971h1.148c.642 0 1.26.255 1.719.71Zm-1.719.628H7.237V8.58c0 .301.116.59.324.806l.672.698.701-.727a2.53 2.53 0 0 1 .095-.1l.013-.012.013-.014c.031-.033.064-.064.097-.095l.718-.71-.689-.681a1.132 1.132 0 0 0-.796-.329ZM5.916 8.58V7.415h-.959c-.297 0-.583.118-.796.329l-2.497 2.47a1.165 1.165 0 0 0 0 1.652l2.497 2.47c.213.21.499.328.796.328h.96v-1.163c0-.651.25-1.276.7-1.741l.694-.72-.695-.72a2.509 2.509 0 0 1-.7-1.741Zm9.797 6.085h.96c.297 0 .583-.118.796-.329l2.497-2.47c.458-.452.458-1.199 0-1.652l-2.497-2.47a1.132 1.132 0 0 0-.797-.328h-.959V8.58c0 .65-.251 1.275-.7 1.74l-.694.72.694.72c.449.466.7 1.091.7 1.742v1.163ZM9.546 11.04c0 .71.568 1.285 1.269 1.285.7 0 1.268-.576 1.268-1.285 0-.71-.568-1.285-1.268-1.285-.7 0-1.269.575-1.269 1.285Z"/>
  </g>
  <defs>
    <clipPath id="a">
      <path fill="#fff" d="M0 0h120v22H0z"/>
    </clipPath>
  </defs>
</svg>
