<svg viewBox="0 0 120 22" fill="none" xmlns="http://www.w3.org/2000/svg">
  <g clip-path="url(#a)" fill="#40D1DB">
    <path d="M119.01 16.2c-1.266 0-2.034-.49-2.034-2.294v-4.36h-1.115V8.309h1.115V5.8h1.476v2.508h1.476v1.239h-1.476v4.405c0 .826.226 1.01.859 1.01.256 0 .376-.016.633-.062v1.208a4.185 4.185 0 0 1-.934.092ZM113.48 11.107c0-1.04-.452-1.744-1.567-1.744-1.265 0-2.079.78-2.079 1.958v4.787h-1.476v-7.8h1.476v.979h.03c.407-.597 1.206-1.208 2.531-1.208 1.416 0 2.561.826 2.561 2.615v5.414h-1.476v-5.001ZM103.465 16.338c-2.44 0-3.796-1.76-3.796-4.145 0-2.447 1.446-4.13 3.796-4.13 2.335 0 3.646 1.56 3.646 3.977 0 .214 0 .444-.015.566h-5.905c.03 1.3.783 2.508 2.305 2.508 1.355 0 1.883-.887 2.018-1.407h1.507c-.407 1.499-1.537 2.63-3.556 2.63Zm-2.274-4.91h4.384c0-1.223-.844-2.141-2.155-2.141-1.235 0-2.139.856-2.229 2.141ZM91.394 16.322c-1.958 0-3.45-1.544-3.45-4.114s1.492-4.13 3.45-4.13c1.205 0 1.943.566 2.365 1.178h.03V5.173h1.477v10.935h-1.477v-.918h-.03c-.422.551-1.16 1.132-2.365 1.132Zm-1.913-4.114c0 1.53.708 2.875 2.154 2.875 1.326 0 2.14-1.116 2.14-2.875 0-1.774-.814-2.875-2.14-2.875-1.446 0-2.154 1.346-2.154 2.875ZM82.803 16.322c-1.959 0-3.45-1.544-3.45-4.114s1.491-4.13 3.45-4.13c1.205 0 1.943.567 2.365 1.178h.03v-.948h1.476v7.8h-1.476v-.918h-.03c-.422.551-1.16 1.132-2.365 1.132Zm-1.914-4.114c0 1.53.708 2.876 2.154 2.876 1.326 0 2.14-1.117 2.14-2.876 0-1.774-.814-2.875-2.14-2.875-1.446 0-2.154 1.346-2.154 2.875ZM76.278 12.07v4.038H74.8v-7.8h1.477v1.484h.03c.407-.98 1.024-1.667 2.064-1.667.27 0 .482.015.708.045v1.438a2.734 2.734 0 0 0-.497-.046c-1.341 0-2.305 1.025-2.305 2.508ZM68.303 16.323c-3.103 0-4.85-2.386-4.85-5.69 0-3.288 1.973-5.674 5.046-5.674 2.787 0 4.263 1.514 4.61 3.594h-1.733c-.286-1.377-1.295-2.141-2.892-2.141-2.38 0-3.299 2.172-3.299 4.221 0 2.065.693 4.237 3.209 4.237 1.777 0 3.194-1.255 3.208-3.075h-3.178v-1.407h4.866v5.72h-1.552v-1.514h-.03c-.753 1.117-1.763 1.729-3.405 1.729ZM60.769 11.107c0-1.04-.452-1.744-1.567-1.744-1.265 0-2.078.78-2.078 1.958v4.787h-1.477v-7.8h1.477v.979h.03c.406-.597 1.205-1.208 2.53-1.208 1.416 0 2.561.826 2.561 2.615v5.414H60.77v-5.001ZM50.755 16.338c-2.44 0-3.797-1.76-3.797-4.145 0-2.447 1.447-4.13 3.797-4.13 2.335 0 3.645 1.56 3.645 3.977 0 .214 0 .444-.015.566H48.48c.03 1.3.783 2.508 2.305 2.508 1.356 0 1.883-.887 2.018-1.407h1.507c-.407 1.499-1.537 2.63-3.555 2.63Zm-2.275-4.91h4.384c0-1.223-.844-2.141-2.155-2.141-1.235 0-2.139.856-2.23 2.141ZM42.63 16.322c-1.205 0-1.943-.55-2.365-1.177h-.03v3.67h-1.477V8.308h1.477v.918h.03c.422-.55 1.16-1.147 2.365-1.147 1.959 0 3.45 1.56 3.45 4.13 0 2.569-1.491 4.113-3.45 4.113Zm-2.38-4.114c0 1.759.813 2.876 2.139 2.876 1.446 0 2.14-1.346 2.14-2.876 0-1.53-.694-2.875-2.14-2.875-1.326 0-2.14 1.101-2.14 2.875ZM32.197 16.323c-3.224 0-5.288-2.402-5.288-5.69 0-3.288 2.064-5.674 5.288-5.674s5.287 2.386 5.287 5.674c0 3.288-2.063 5.69-5.287 5.69Zm-3.555-5.69c0 2.248 1.009 4.237 3.555 4.237 2.546 0 3.555-1.989 3.555-4.237s-1.01-4.221-3.555-4.221c-2.546 0-3.555 1.973-3.555 4.221ZM96.927 16.108v-7.8h1.476v7.8h-1.476ZM97.673 7.095c.523 0 .947-.43.947-.961a.954.954 0 0 0-.947-.961.954.954 0 0 0-.947.96c0 .532.424.962.947.962Z"/>
    <path fill-rule="evenodd" clip-rule="evenodd" d="M9.05.778a2.433 2.433 0 0 1 3.519 0l2.437 2.534c.449.466.7 1.092.7 1.744v.973h.958a2.44 2.44 0 0 1 1.718.71l2.496 2.475c.988.98.988 2.593 0 3.572l-2.496 2.475a2.44 2.44 0 0 1-1.718.71h-.958v.973c0 .652-.251 1.278-.7 1.744l-2.437 2.534a2.433 2.433 0 0 1-3.519 0l-2.437-2.534a2.516 2.516 0 0 1-.7-1.744v-.973h-.958a2.44 2.44 0 0 1-1.718-.71L.741 12.786a2.523 2.523 0 0 1 0-3.572L3.237 6.74a2.44 2.44 0 0 1 1.718-.71h.959v-.974c0-.652.25-1.278.7-1.744L9.05.778ZM7.233 16.944v-.973h1.148a2.44 2.44 0 0 0 1.718-.71l.71-.705.711.705a2.44 2.44 0 0 0 1.718.71h1.148v.973c0 .302-.116.592-.324.808l-2.437 2.534a1.127 1.127 0 0 1-1.63 0l-2.438-2.534a1.166 1.166 0 0 1-.324-.808Zm1.944-2.642.688-.682-.72-.713a2.52 2.52 0 0 1-.095-.095l-.01-.01-.016-.016a2.52 2.52 0 0 1-.096-.1l-.699-.727-.672.698a1.166 1.166 0 0 0-.324.809v1.165h1.148c.298 0 .583-.118.796-.329Zm2.577-5.922.716.71a2.5 2.5 0 0 1 .099.098l.015.015.01.01c.033.033.064.065.094.098l.702.73.672-.698c.208-.216.324-.507.324-.809V7.37h-1.148a1.13 1.13 0 0 0-.796.33l-.688.681Zm.84 4.406-.012.013-.013.014a2.515 2.515 0 0 1-.097.095l-.718.712.688.682c.213.211.499.33.796.33h1.148v-1.166c0-.302-.116-.592-.324-.809l-.672-.698-.7.728-.095.1ZM10.1 6.74l.71.704.711-.704a2.44 2.44 0 0 1 1.718-.71h1.148v-.974c0-.302-.116-.592-.324-.808l-2.437-2.534a1.128 1.128 0 0 0-1.63 0L7.556 4.248a1.166 1.166 0 0 0-.324.808v.973h1.148a2.44 2.44 0 0 1 1.718.71Zm-1.718.629H7.233v1.165c0 .302.116.593.324.809l.672.698.7-.728a2.54 2.54 0 0 1 .095-.1l.014-.012.012-.013c.032-.034.065-.066.098-.096l.717-.712-.688-.682a1.13 1.13 0 0 0-.796-.33ZM5.914 8.534V7.37h-.96a1.13 1.13 0 0 0-.795.33l-2.496 2.473a1.17 1.17 0 0 0 0 1.656l2.496 2.474c.213.211.498.33.796.33h.959v-1.166c0-.652.25-1.278.7-1.744L7.306 11l-.694-.722a2.517 2.517 0 0 1-.7-1.744Zm9.792 6.097h.958c.298 0 .584-.118.796-.329l2.496-2.474a1.17 1.17 0 0 0 0-1.656l-2.495-2.474a1.13 1.13 0 0 0-.797-.33h-.958v1.166c0 .652-.251 1.278-.7 1.744l-.694.722.694.722c.449.466.7 1.092.7 1.744v1.165Zm-6.164-3.63c0 .71.567 1.286 1.268 1.286.7 0 1.268-.576 1.268-1.287 0-.71-.568-1.287-1.268-1.287-.7 0-1.268.576-1.268 1.287Z"/>
  </g>
  <defs>
    <clipPath id="a">
      <path fill="#fff" d="M0 0h120v22H0z"/>
    </clipPath>
  </defs>
</svg>
