<svg viewBox="0 0 180 180" fill="none" xmlns="http://www.w3.org/2000/svg">
  <g clip-path="url(#a)">
    <path fill-rule="evenodd" clip-rule="evenodd" d="M89.996 180c-5.74 0-11.111-2.261-15.12-6.371l-20.098-20.584a21.02 21.02 0 0 1-6.01-14.763v-7.056h-7.054a21.008 21.008 0 0 1-14.761-6.009L6.368 105.118C2.261 101.107 0 95.739 0 89.999s2.26-11.112 6.368-15.12L26.953 54.78a21.017 21.017 0 0 1 14.76-6.012h7.055v-7.054c0-5.547 2.134-10.791 6.01-14.761L74.877 6.368C78.887 2.261 84.257 0 89.997 0c5.74 0 11.108 2.26 15.118 6.368l20.099 20.585a21.016 21.016 0 0 1 6.012 14.76v7.055h7.053c5.549 0 10.79 2.137 14.763 6.013l20.585 20.098c4.107 4.011 6.37 9.38 6.37 15.12 0 5.74-2.263 11.111-6.37 15.119l-20.585 20.099a21.019 21.019 0 0 1-14.763 6.009h-7.053v7.056a21.022 21.022 0 0 1-6.012 14.763l-20.099 20.584c-4.01 4.107-9.379 6.371-15.119 6.371ZM61.35 138.284c0 2.245.864 4.364 2.431 5.969l20.099 20.584a8.478 8.478 0 0 0 6.114 2.577 8.475 8.475 0 0 0 6.113-2.577l20.099-20.584a8.503 8.503 0 0 0 2.432-5.971v-7.056h-8.616a21.009 21.009 0 0 1-14.762-6.009l-5.266-5.142-5.267 5.142a21.013 21.013 0 0 1-14.761 6.009H61.35v7.058ZM41.707 61.352a8.501 8.501 0 0 0-5.968 2.432L15.155 83.882a8.476 8.476 0 0 0-2.576 6.114c0 2.322.915 4.494 2.576 6.114l20.585 20.099a8.493 8.493 0 0 0 5.971 2.431h7.055v-8.616a21.022 21.022 0 0 1 6.01-14.764l5.142-5.266-5.143-5.267a21.015 21.015 0 0 1-6.01-14.761V61.35h-7.054l-.002.002Zm96.571 57.288a8.484 8.484 0 0 0 5.969-2.431l20.585-20.099a8.476 8.476 0 0 0 2.573-6.114 8.484 8.484 0 0 0-2.573-6.114l-20.585-20.098a8.493 8.493 0 0 0-5.972-2.432h-7.052v8.616c0 5.55-2.136 10.794-6.012 14.761l-5.14 5.267 5.14 5.267a21.021 21.021 0 0 1 6.012 14.763v8.614h7.055Zm-34.229-2.431a8.492 8.492 0 0 0 5.969 2.431h8.616v-8.614a8.492 8.492 0 0 0-2.429-5.969l-4.931-5.05-5.17 5.295c-.242.264-.511.544-.793.819l-.024-.023.018.028-.109.104c-.356.366-.639.638-.923.898l-5.275 5.15 5.051 4.931Zm-34.082 2.431a8.496 8.496 0 0 0 5.97-2.431l5.048-4.931-5.308-5.183a18.269 18.269 0 0 1-.806-.786l-.191-.188c-.287-.28-.565-.565-.831-.857l-5.135-5.262-4.931 5.051a8.5 8.5 0 0 0-2.432 5.971v8.614l8.616.002Zm20.028-38.25c-5.297 0-9.605 4.311-9.605 9.606s4.31 9.606 9.605 9.606c5.295 0 9.606-4.31 9.606-9.606 0-5.295-4.311-9.605-9.606-9.605ZM61.352 69.969c0 2.246.865 4.365 2.432 5.97l4.93 5.05 5.169-5.292c.244-.267.513-.542.79-.817l.814.392-.61-.593c.272-.282.557-.554.841-.816l5.272-5.147-5.05-4.931a8.492 8.492 0 0 0-5.972-2.432h-8.616v8.616Zm42.93 3.9c.269.248.554.523.831.808l.124.124c.351.342.616.616.873.893l5.168 5.29 4.931-5.05a8.5 8.5 0 0 0 2.431-5.97v-8.616h-8.616a8.497 8.497 0 0 0-5.969 2.431l-5.05 4.932 5.277 5.157Zm-34.316-25.1c5.55 0 10.79 2.134 14.76 6.01l5.27 5.142 5.267-5.142a21.015 21.015 0 0 1 14.761-6.01h8.616v-7.054a8.502 8.502 0 0 0-2.431-5.972L96.11 15.158a8.476 8.476 0 0 0-6.114-2.577 8.476 8.476 0 0 0-6.114 2.577L63.784 35.742a8.503 8.503 0 0 0-2.432 5.972v7.054h8.614Z" fill="#000"/>
  </g>
  <defs>
    <clipPath id="a">
      <path fill="#fff" d="M0 0h180v180H0z"/>
    </clipPath>
  </defs>
</svg>
