<svg viewBox="0 0 659 119" fill="none" xmlns="http://www.w3.org/2000/svg">
  <path d="M653.561 87.628c-6.949 0-11.169-2.647-11.169-12.41V51.642h-6.122V44.94h6.122V31.372h8.108V44.94h8.107v6.7H650.5v23.827c0 4.467 1.241 5.46 4.715 5.46 1.407 0 2.069-.083 3.475-.331v6.535c-2.068.414-3.392.497-5.129.497ZM623.193 60.079c0-5.626-2.482-9.431-8.604-9.431-6.949 0-11.416 4.219-11.416 10.59V87.13h-8.108V44.94h8.108v5.294h.165c2.234-3.226 6.619-6.535 13.899-6.535 7.776 0 14.064 4.467 14.064 14.146v29.286h-8.108V60.08ZM568.198 88.372c-13.402 0-20.848-9.514-20.848-22.42 0-13.236 7.942-22.336 20.848-22.336 12.823 0 20.02 8.438 20.02 21.51 0 1.157 0 2.398-.082 3.06h-32.43c.165 7.032 4.302 13.568 12.657 13.568 7.446 0 10.342-4.799 11.086-7.612h8.273c-2.234 8.108-8.438 14.23-19.524 14.23Zm-12.492-26.556h24.074c0-6.618-4.633-11.582-11.83-11.582-6.784 0-11.748 4.633-12.244 11.582ZM501.906 88.288c-10.755 0-18.945-8.355-18.945-22.254 0-13.898 8.19-22.337 18.945-22.337 6.618 0 10.672 3.061 12.988 6.37h.166V27.98h8.107V87.13h-8.107v-4.963h-.166c-2.316 2.978-6.37 6.121-12.988 6.121ZM491.4 66.034c0 8.273 3.888 15.553 11.83 15.553 7.28 0 11.747-6.039 11.747-15.553 0-9.596-4.467-15.553-11.747-15.553-7.942 0-11.83 7.28-11.83 15.553ZM454.724 88.29c-10.755 0-18.945-8.356-18.945-22.255 0-13.898 8.19-22.336 18.945-22.336 6.618 0 10.672 3.06 12.988 6.37h.166v-5.13h8.107v42.192h-8.107v-4.963h-.166c-2.316 2.978-6.37 6.121-12.988 6.121Zm-10.507-22.255c0 8.273 3.888 15.553 11.83 15.553 7.28 0 11.748-6.039 11.748-15.553 0-9.596-4.468-15.553-11.748-15.553-7.942 0-11.83 7.28-11.83 15.553ZM418.891 65.29v21.84h-8.107V44.94h8.107v8.025h.166c2.234-5.295 5.625-9.018 11.334-9.018 1.489 0 2.647.083 3.888.248v7.777c-.993-.165-1.737-.248-2.73-.248-7.363 0-12.658 5.543-12.658 13.567ZM375.1 88.29c-17.042 0-26.639-12.906-26.639-30.776 0-17.787 10.837-30.692 27.714-30.692 15.305 0 23.412 8.19 25.315 19.441h-9.514c-1.571-7.445-7.114-11.582-15.884-11.582-13.071 0-18.117 11.748-18.117 22.833 0 11.169 3.805 22.916 17.621 22.916 9.762 0 17.539-6.784 17.621-16.628h-17.456V56.19h26.722v30.94h-8.521v-8.19h-.166c-4.136 6.04-9.679 9.348-18.696 9.348ZM333.723 60.079c0-5.626-2.482-9.431-8.603-9.431-6.95 0-11.417 4.219-11.417 10.59V87.13h-8.107V44.94h8.107v5.294h.165c2.234-3.226 6.619-6.535 13.899-6.535 7.776 0 14.064 4.467 14.064 14.146v29.286h-8.108V60.08ZM278.728 88.372c-13.403 0-20.848-9.514-20.848-22.42 0-13.236 7.942-22.336 20.848-22.336 12.823 0 20.02 8.438 20.02 21.51 0 1.157 0 2.398-.083 3.06h-32.429c.165 7.032 4.301 13.568 12.657 13.568 7.446 0 10.341-4.799 11.086-7.612h8.273c-2.234 8.108-8.439 14.23-19.524 14.23Zm-12.492-26.556h24.074c0-6.618-4.633-11.582-11.831-11.582-6.783 0-11.747 4.633-12.243 11.582ZM234.11 88.29c-6.618 0-10.672-2.979-12.989-6.37h-.165v19.854h-8.107V44.94h8.107v4.963h.165c2.317-2.978 6.371-6.204 12.989-6.204 10.755 0 18.945 8.438 18.945 22.336 0 13.899-8.19 22.254-18.945 22.254Zm-13.071-22.255c0 9.514 4.467 15.553 11.747 15.553 7.942 0 11.748-7.28 11.748-15.553 0-8.272-3.806-15.553-11.748-15.553-7.28 0-11.747 5.957-11.747 15.553ZM176.814 88.29c-17.704 0-29.038-12.99-29.038-30.776 0-17.787 11.334-30.692 29.038-30.692s29.038 12.905 29.038 30.692-11.334 30.775-29.038 30.775ZM157.29 57.513c0 12.161 5.543 22.916 19.524 22.916 13.981 0 19.524-10.755 19.524-22.916 0-12.16-5.543-22.833-19.524-22.833-13.981 0-19.524 10.672-19.524 22.833ZM532.291 87.131V44.94h8.107v42.192h-8.107ZM536.388 38.376a5.199 5.199 0 1 0 0-10.398 5.199 5.199 0 0 0 0 10.398Z" fill="#40D1DB"/>
  <path fill-rule="evenodd" clip-rule="evenodd" d="M49.702 4.207C55-1.22 63.727-1.22 69.025 4.207l13.383 13.707a13.503 13.503 0 0 1 3.842 9.434v5.265h5.265c3.526 0 6.912 1.379 9.434 3.842l13.707 13.384c5.426 5.298 5.426 14.025 0 19.323l-13.707 13.384a13.503 13.503 0 0 1-9.434 3.841H86.25v5.266c0 3.525-1.379 6.91-3.841 9.433l-13.384 13.707c-5.298 5.426-14.025 5.426-19.324 0l-13.383-13.707a13.503 13.503 0 0 1-3.842-9.433v-5.266H27.21a13.503 13.503 0 0 1-9.433-3.841L4.07 69.162c-5.427-5.298-5.427-14.025 0-19.323l13.707-13.384a13.503 13.503 0 0 1 9.433-3.842h5.266v-5.265c0-3.526 1.379-6.912 3.842-9.434L49.702 4.207Zm-9.98 87.446v-5.266h6.304c3.526 0 6.911-1.378 9.434-3.841l3.903-3.811 3.903 3.81a13.503 13.503 0 0 0 9.434 3.842h6.305v5.266a6.258 6.258 0 0 1-1.78 4.371L63.84 109.731a6.257 6.257 0 0 1-8.955 0L41.502 96.024a6.258 6.258 0 0 1-1.78-4.371ZM50.398 77.36l3.78-3.69-3.952-3.858a13.712 13.712 0 0 1-.524-.509l-.058-.059-.085-.083c-.182-.178-.359-.36-.529-.546l-3.838-3.93-3.69 3.779a6.258 6.258 0 0 0-1.78 4.372v6.305h6.304a6.258 6.258 0 0 0 4.372-1.78Zm14.15-32.032 3.931 3.838c.186.17.368.347.546.529l.083.086.059.057c.175.17.345.346.509.524l3.858 3.951 3.69-3.779a6.258 6.258 0 0 0 1.78-4.372V39.86H72.7a6.258 6.258 0 0 0-4.372 1.78l-3.78 3.69Zm4.619 23.833-.072.07-.07.072c-.175.179-.353.352-.535.52l-3.941 3.847 3.779 3.69a6.258 6.258 0 0 0 4.372 1.78h6.305v-6.304a6.258 6.258 0 0 0-1.78-4.372l-3.69-3.78-3.85 3.942c-.166.182-.34.36-.518.535ZM55.46 36.455l3.903 3.811 3.903-3.811a13.503 13.503 0 0 1 9.434-3.842h6.305v-5.265a6.258 6.258 0 0 0-1.78-4.372L63.84 9.269a6.258 6.258 0 0 0-8.955 0L41.502 22.976a6.258 6.258 0 0 0-1.78 4.372v5.265h6.304c3.526 0 6.911 1.379 9.434 3.842Zm-9.434 3.404h-6.304v6.304c0 1.634.639 3.203 1.78 4.372l3.69 3.78 3.848-3.941c.167-.182.34-.36.519-.535l.072-.07.07-.073c.175-.179.354-.352.536-.52l3.94-3.847-3.78-3.69a6.258 6.258 0 0 0-4.37-1.78Zm-13.55 6.304V39.86H27.21a6.258 6.258 0 0 0-4.371 1.78L9.132 55.023a6.258 6.258 0 0 0 0 8.955L22.839 77.36a6.258 6.258 0 0 0 4.371 1.78h5.266v-6.304c0-3.526 1.379-6.912 3.842-9.434l3.81-3.903-3.81-3.903a13.503 13.503 0 0 1-3.842-9.434ZM86.25 79.142h5.265a6.258 6.258 0 0 0 4.372-1.78l13.707-13.384a6.257 6.257 0 0 0 0-8.955L95.887 41.639a6.258 6.258 0 0 0-4.372-1.78H86.25v6.304c0 3.526-1.379 6.912-3.841 9.434L78.597 59.5l3.81 3.903a13.504 13.504 0 0 1 3.842 9.434v6.305ZM52.4 59.5a6.963 6.963 0 1 0 13.927 0 6.963 6.963 0 0 0-13.927 0Z" fill="#40D1DB"/>
</svg>
