<svg viewBox="0 0 1000 181" fill="none" xmlns="http://www.w3.org/2000/svg">
  <path d="M992.212 133.527c-10.55 0-16.955-4.019-16.955-18.839V78.893h-9.294V68.72h9.294V48.122h12.308V68.72h12.309v10.173h-12.309v36.172c0 6.782 1.884 8.289 7.159 8.289 2.136 0 3.14-.125 5.275-.502v9.922c-3.139.628-5.149.753-7.787.753ZM946.11 91.704c0-8.54-3.768-14.318-13.062-14.318-10.55 0-17.332 6.405-17.332 16.076v39.312h-12.309V68.72h12.309v8.038h.251c3.391-4.898 10.048-9.922 21.1-9.922 11.806 0 21.351 6.782 21.351 21.477v44.461H946.11v-41.07ZM862.618 134.657c-20.347 0-31.65-14.443-31.65-34.036 0-20.096 12.057-33.911 31.65-33.911 19.467 0 30.394 12.81 30.394 32.655 0 1.758 0 3.642-.125 4.647h-49.234c.251 10.676 6.531 20.598 19.216 20.598 11.304 0 15.7-7.285 16.83-11.555h12.56c-3.391 12.308-12.811 21.602-29.641 21.602Zm-18.965-40.316h36.548c0-10.048-7.033-17.583-17.96-17.583-10.299 0-17.834 7.033-18.588 17.583ZM761.975 134.53c-16.327 0-28.761-12.685-28.761-33.785 0-21.1 12.434-33.911 28.761-33.911 10.048 0 16.202 4.647 19.719 9.67h.251V42.972h12.309v89.801h-12.309v-7.536h-.251c-3.517 4.522-9.671 9.294-19.719 9.294Zm-15.95-33.785c0 12.56 5.903 23.612 17.96 23.612 11.052 0 17.835-9.169 17.835-23.612 0-14.57-6.783-23.612-17.835-23.612-12.057 0-17.96 11.052-17.96 23.612ZM690.346 134.532c-16.328 0-28.762-12.685-28.762-33.785 0-21.1 12.434-33.911 28.762-33.911 10.047 0 16.201 4.647 19.718 9.67h.251V68.72h12.309v64.054h-12.309v-7.536h-.251c-3.517 4.522-9.671 9.294-19.718 9.294Zm-15.951-33.785c0 12.559 5.903 23.612 17.96 23.612 11.052 0 17.835-9.169 17.835-23.612 0-14.57-6.783-23.612-17.835-23.612-12.057 0-17.96 11.052-17.96 23.612ZM635.946 99.616v33.157h-12.308V68.719h12.308v12.183h.251c3.391-8.038 8.541-13.69 17.207-13.69 2.261 0 4.019.126 5.903.377v11.806c-1.507-.251-2.638-.377-4.145-.377-11.178 0-19.216 8.415-19.216 20.598ZM569.462 134.532c-25.872 0-40.441-19.593-40.441-46.722 0-27.003 16.453-46.596 42.074-46.596 23.235 0 35.544 12.434 38.433 29.515h-14.444c-2.386-11.304-10.801-17.584-24.114-17.584-19.845 0-27.506 17.835-27.506 34.665 0 16.955 5.777 34.79 26.752 34.79 14.82 0 26.626-10.299 26.752-25.245h-26.501V85.8h40.568v46.973h-12.937v-12.434h-.251c-6.28 9.169-14.695 14.193-28.385 14.193ZM506.647 91.704c0-8.54-3.768-14.318-13.062-14.318-10.55 0-17.332 6.405-17.332 16.076v39.312h-12.309V68.72h12.309v8.038h.251c3.391-4.898 10.048-9.922 21.1-9.922 11.806 0 21.351 6.782 21.351 21.477v44.461h-12.308v-41.07ZM423.154 134.657c-20.346 0-31.65-14.443-31.65-34.036 0-20.096 12.057-33.911 31.65-33.911 19.468 0 30.394 12.81 30.394 32.655 0 1.758 0 3.642-.125 4.647h-49.234c.251 10.676 6.531 20.598 19.216 20.598 11.304 0 15.7-7.285 16.83-11.555h12.56c-3.391 12.308-12.811 21.602-29.641 21.602Zm-18.965-40.316h36.549c0-10.048-7.034-17.583-17.961-17.583-10.299 0-17.834 7.033-18.588 17.583ZM355.417 134.532c-10.048 0-16.202-4.521-19.719-9.671h-.251v30.143h-12.308V68.72h12.308v7.536h.251c3.517-4.522 9.671-9.42 19.719-9.42 16.327 0 28.761 12.81 28.761 33.911 0 21.1-12.434 33.785-28.761 33.785Zm-19.844-33.785c0 14.443 6.782 23.612 17.834 23.612 12.058 0 17.835-11.053 17.835-23.612 0-12.56-5.777-23.612-17.835-23.612-11.052 0-17.834 9.043-17.834 23.612ZM268.433 134.532c-26.878 0-44.084-19.719-44.084-46.722s17.206-46.596 44.084-46.596c26.877 0 44.084 19.593 44.084 46.596 0 27.003-17.207 46.722-44.084 46.722ZM238.792 87.81c0 18.463 8.415 34.79 29.641 34.79s29.641-16.327 29.641-34.79c0-18.463-8.415-34.665-29.641-34.665s-29.641 16.202-29.641 34.665ZM808.104 132.774V68.72h12.309v64.054h-12.309ZM814.325 58.756a7.893 7.893 0 1 0 0-15.786 7.893 7.893 0 0 0 0 15.786Z" fill="#000"/>
  <path fill-rule="evenodd" clip-rule="evenodd" d="M75.455 6.88c8.044-8.237 21.293-8.237 29.336 0l20.319 20.81a20.5 20.5 0 0 1 5.832 14.322v7.994h7.993a20.498 20.498 0 0 1 14.322 5.833l20.81 20.318c8.238 8.044 8.238 21.293 0 29.336l-20.81 20.319a20.499 20.499 0 0 1-14.322 5.832h-7.993v7.993a20.499 20.499 0 0 1-5.832 14.322l-20.319 20.81c-8.043 8.238-21.292 8.238-29.336 0l-20.319-20.81a20.498 20.498 0 0 1-5.832-14.322v-7.993H41.31a20.501 20.501 0 0 1-14.322-5.832l-20.81-20.319c-8.237-8.043-8.238-21.292 0-29.336l20.81-20.318a20.5 20.5 0 0 1 14.322-5.833h7.994v-7.994a20.5 20.5 0 0 1 5.832-14.322l20.32-20.81Zm-15.15 132.757v-7.993h9.57a20.501 20.501 0 0 0 14.322-5.832l5.926-5.786 5.925 5.786a20.502 20.502 0 0 0 14.322 5.832h9.572v7.993c0 2.481-.97 4.863-2.703 6.637l-20.319 20.81c-3.727 3.818-9.867 3.818-13.594 0l-20.319-20.81a9.498 9.498 0 0 1-2.703-6.637Zm16.207-21.696 5.738-5.602-5.999-5.857c-.27-.249-.536-.507-.796-.773l-.087-.089-.13-.127c-.276-.27-.544-.546-.802-.828l-5.827-5.967-5.602 5.737a9.501 9.501 0 0 0-2.703 6.637v9.572h9.571a9.5 9.5 0 0 0 6.637-2.703Zm21.484-48.63 5.967 5.827c.281.258.558.526.828.803l.127.13.089.086c.266.26.523.525.772.796l5.858 5.999 5.602-5.738a9.5 9.5 0 0 0 2.703-6.637v-9.57h-9.572c-2.48 0-4.862.97-6.637 2.702l-5.737 5.602Zm7.011 36.182-.109.107-.107.109c-.265.271-.536.534-.812.788l-5.983 5.842 5.737 5.602a9.5 9.5 0 0 0 6.637 2.703h9.572v-9.572a9.5 9.5 0 0 0-2.703-6.637l-5.602-5.737-5.843 5.983c-.253.276-.516.547-.787.812Zm-20.81-49.654 5.926 5.785 5.925-5.785a20.501 20.501 0 0 1 14.322-5.833h9.572v-7.994a9.5 9.5 0 0 0-2.703-6.637L96.92 14.565c-3.727-3.817-9.867-3.817-13.594 0l-20.319 20.81a9.5 9.5 0 0 0-2.703 6.637v7.994h9.571a20.5 20.5 0 0 1 14.322 5.833Zm-14.322 5.168h-9.57v9.57a9.5 9.5 0 0 0 2.702 6.637l5.602 5.738 5.841-5.982c.254-.276.517-.547.789-.813l.11-.107.106-.11c.265-.27.536-.534.813-.787l5.982-5.842-5.738-5.602a9.5 9.5 0 0 0-6.637-2.703Zm-20.57 9.57v-9.57H41.31a9.5 9.5 0 0 0-6.637 2.702l-20.81 20.319c-3.817 3.727-3.817 9.867 0 13.595l20.81 20.318a9.5 9.5 0 0 0 6.637 2.703h7.994v-9.572a20.501 20.501 0 0 1 5.832-14.322l5.786-5.925-5.785-5.926a20.5 20.5 0 0 1-5.833-14.322Zm81.637 50.067h7.993c2.481 0 4.863-.97 6.637-2.703l20.81-20.318c3.817-3.728 3.817-9.868 0-13.595l-20.81-20.319a9.498 9.498 0 0 0-6.637-2.703h-7.993v9.571A20.501 20.501 0 0 1 125.11 84.9l-5.786 5.926 5.786 5.925a20.502 20.502 0 0 1 5.832 14.322v9.572Zm-51.39-29.82c0 5.84 4.733 10.573 10.571 10.573 5.839 0 10.572-4.734 10.572-10.572 0-5.839-4.733-10.572-10.572-10.572-5.838 0-10.572 4.733-10.572 10.572Z" fill="#000"/>
</svg>
